<svg xmlns="http://www.w3.org/2000/svg" width="632.643" height="333.591" viewBox="0 0 632.643 333.591"><defs><style>.a{fill:#2c3451;}.b{fill:#fff;}.c{fill:#758fb3;}.d{fill:#657faa;}.e,.p{fill:#343a55;}.f{fill:#91aece;}.g{fill:#111;}.h{fill:#edd9ca;}.i{fill:#d8e1ea;}.j{fill:#c8ccc6;}.k{fill:#c2cbd7;}.l{fill:#c49b68;}.m{fill:#d19e66;}.n{fill:#dae5ef;}.o{fill:#bacbd8;}.p{opacity:0.2;}.q{fill:#607e55;}</style></defs><g transform="translate(-20.2 0.5)"><g transform="translate(526.877 179.784)"><g transform="translate(9.924 126.192)"><path class="a" d="M796.228,418.737H789.2l-.078-.234L783.1,391.7h9.768Zm-6.564-.547H795.6l-3.126-25.865H783.96Z" transform="translate(-703.551 -391.7)"/><path class="a" d="M688.333,418.737H681.3l3.282-27.037h9.768Zm-6.408-.547h5.939l5.783-25.865h-8.518Z" transform="translate(-681.3 -391.7)"/></g><g transform="translate(24.459 126.192)"><path class="b" d="M778.743,418.737h-5L769.6,391.7h6.877v.234Zm-4.454-.547h3.829l-2.188-25.865H770.3Z" transform="translate(-715.135 -391.7)"/><path class="b" d="M704.9,418.737h-5l2.266-27.037h6.877Zm-4.376-.547h3.829l3.985-25.865h-5.626Z" transform="translate(-699.9 -391.7)"/></g><path class="c" d="M770.391,297.093l5.939-59.31a6.749,6.749,0,0,0-7.58-7.5c-31.257,4.61-53.45,4.61-84.082,0a6.749,6.749,0,0,0-7.58,7.5l5.939,59.232a7.4,7.4,0,0,1-.156,2.266c-.7,3.2-2.813,12.5-3.048,13.05-.156.391,1.25,4.61,2.422,8.127a6.634,6.634,0,0,0,6.564,4.532l37.665-1.25h.469l37.665,1.25a6.8,6.8,0,0,0,6.564-4.532c1.172-3.516,2.579-7.736,2.422-8.127-.234-.625-2.266-9.846-3.048-13.05A6.743,6.743,0,0,1,770.391,297.093Z" transform="translate(-670.447 -230.211)"/><path class="d" d="M679.9,310.1l7.58,5.939c1.8,1.485,1.953,2.266,2.188,4.767l2.5,19.3H680.681Z" transform="translate(-671.07 -247.672)"/><path class="d" d="M797.868,310.1l-7.58,5.939c-1.8,1.485-1.953,2.266-2.188,4.767l-2.5,19.3,11.487.86Z" transform="translate(-694.173 -247.672)"/><path class="e" d="M778.469,309.4h-4.61a2.753,2.753,0,0,0-2.657,2.188l-3.595,28.444c-.234,1.25-2.5-1.25-3.751-1.25H685.87c-1.25,0-3.516,3.2-3.751,1.954l-3.595-29.147a2.689,2.689,0,0,0-2.657-2.188h-4.61a2.635,2.635,0,0,0-2.657,2.657l5.157,61.264a6.1,6.1,0,0,0,6.1,6.1h91.036a6.019,6.019,0,0,0,6.017-6.017l4.3-61.342A2.753,2.753,0,0,0,778.469,309.4Z" transform="translate(-668.6 -247.519)"/><path class="f" d="M768.631,368.442H688.613a2.8,2.8,0,0,1-2.813-2.813V348.2a2.8,2.8,0,0,1,2.813-2.813,545.919,545.919,0,0,1,79.94,0,2.8,2.8,0,0,1,2.813,2.813v17.426A2.736,2.736,0,0,1,768.631,368.442Z" transform="translate(-672.359 -255.066)"/><rect class="a" width="79.627" height="0.625" transform="translate(16.41 92.044)"/></g><g transform="translate(372.077 -0.5)"><path class="g" d="M516.029,32.82h0a1.369,1.369,0,0,1-1.328-1.328V27.428a1.369,1.369,0,0,1,1.328-1.328h0a1.369,1.369,0,0,1,1.328,1.328v4.063A1.369,1.369,0,0,1,516.029,32.82Z" transform="translate(-480.161 -5.314)"/><path class="g" d="M514.389,45.595a7.154,7.154,0,0,1-7.189-7.111,6.85,6.85,0,0,1,2.032-4.923l.078-.078a2.684,2.684,0,0,0,.938-2.11V29.81a2.1,2.1,0,0,1,2.11-2.11h3.829a2.1,2.1,0,0,1,2.11,2.11v1.563a3.182,3.182,0,0,0,.938,2.188l.078.078a6.984,6.984,0,0,1,2.032,4.923,6.888,6.888,0,0,1-6.955,7.033Zm-3.516-15.863v1.563a3.463,3.463,0,0,1-1.172,2.579l-.078.078a6.546,6.546,0,1,0,11.253,4.532A6.133,6.133,0,0,0,519,33.951l-.078-.078a3.589,3.589,0,0,1-1.172-2.579V29.732a1.567,1.567,0,0,0-1.563-1.563h-3.829a1.553,1.553,0,0,0-1.485,1.563Z" transform="translate(-478.522 -5.664)"/><path class="g" d="M515.154,38.348l-.234-.156a5.242,5.242,0,0,0-3.595-1.172l-.625.078,3.2-4.22.469.391-2.422,3.2a5.816,5.816,0,0,1,3.126,1.094,4.63,4.63,0,0,1,3.2-1.172l-2.422-3.2.469-.391,3.2,4.22-.7-.078a4.116,4.116,0,0,0-3.516,1.094Z" transform="translate(-479.287 -6.778)"/><rect class="g" width="0.625" height="4.767" transform="translate(35.555 26.412)"/><path class="g" d="M520.734,26.973a6.857,6.857,0,0,0-6.017-3.673,6.766,6.766,0,0,0-6.017,3.673Z" transform="translate(-478.849 -4.702)"/><path class="g" d="M535.827,69.35H476.751L470.5,55.206v-.078c4.22-13.6,13.05-22.818,26.256-27.428h18.911a49.787,49.787,0,0,1,26.256,27.35l.078.078-.078.078Zm-58.607-.625h58.294l6.017-13.6a49.4,49.4,0,0,0-25.865-26.959h-18.6C484.1,32.7,475.423,41.766,471.2,55.05Z" transform="translate(-470.5 -5.664)"/><path class="g" d="M525.995,69.328H496.848L493.8,55.184v-.078c1.016-9.846,5.314-19.067,12.815-27.428l.078-.078h9.455l.078.078a73.533,73.533,0,0,1,12.815,27.35v.156ZM497.316,68.7h28.209l2.891-13.6a73.163,73.163,0,0,0-12.581-26.959h-8.908c-7.345,8.2-11.565,17.27-12.581,26.881Z" transform="translate(-475.593 -5.642)"/><rect class="g" width="70.875" height="0.625" transform="translate(0.391 49.23)"/><rect class="g" width="0.625" height="18.598" transform="translate(35.555)"/></g><g transform="translate(328.864 74.673)"><path class="a" d="M460.757,158.761H415.2V95.7h45.557Zm-45.01-.547h44.385V96.247H415.747Z" transform="translate(-415.2 -95.7)"/><rect class="b" width="32.429" height="48.917" transform="translate(6.486 7.033)"/><path class="h" d="M447,143.078c-.156-5.939-2.422-12.815-8.439-15.238a6.009,6.009,0,0,0-4.923-.078,7.779,7.779,0,0,0-3.2,3.516,16.086,16.086,0,0,0,2.579,16.8c2.266,2.657,5.7,5.157,9.377,5.236a4.5,4.5,0,0,0,2.032-.391c2.422-1.094,2.5-5.236,2.579-7.5Z" transform="translate(-418.242 -102.6)"/><path class="i" d="M450.757,112.15c-1.25-1.563-3.595-1.954-5.47-2.344a53.176,53.176,0,0,0-7.892-1.016c-1.719-.078-3.751-.156-4.923,1.328a3.237,3.237,0,0,0-.625,3.126,4.494,4.494,0,0,0,2.969,1.875,27.391,27.391,0,0,0,4.376,1.016,43.072,43.072,0,0,0,8.986.469c1.094-.078,2.5-.391,3.048-1.407a2.645,2.645,0,0,0-.078-2.422A2.742,2.742,0,0,0,450.757,112.15Z" transform="translate(-418.797 -98.554)"/><path class="j" d="M458.853,123.639a4.458,4.458,0,0,0-5.236-.156,2.871,2.871,0,0,0,.625,4.767,5.947,5.947,0,0,0,3.829.547c1.016-.234,1.328-1.016,1.641-1.954a4.427,4.427,0,0,0,.234-1.407A3.324,3.324,0,0,0,458.853,123.639Z" transform="translate(-423.377 -101.602)"/><g transform="translate(63.843 15.472)"><rect class="b" width="37.899" height="39.228" transform="translate(7.892 22.818)"/><rect class="k" width="0.547" height="45.166" transform="matrix(0.339, -0.941, 0.941, 0.339, 5.5, 26.664)"/><path class="k" d="M505.339,182.479a8.439,8.439,0,1,1,8.439-8.439A8.454,8.454,0,0,1,505.339,182.479Zm0-16.332a7.892,7.892,0,1,0,7.892,7.892A7.871,7.871,0,0,0,505.339,166.147Z" transform="translate(-496.9 -126.451)"/><path class="k" d="M532.651,180.2a3.751,3.751,0,1,1,3.751-3.751A3.8,3.8,0,0,1,532.651,180.2Zm0-6.955a3.2,3.2,0,1,0,3.2,3.2A3.27,3.27,0,0,0,532.651,173.247Z" transform="translate(-503.894 -128.002)"/><path class="k" d="M555.707,146.913a15.707,15.707,0,1,1,15.707-15.707A15.708,15.708,0,0,1,555.707,146.913Zm0-30.866a15.16,15.16,0,1,0,15.16,15.16A15.174,15.174,0,0,0,555.707,116.047Z" transform="translate(-506.321 -115.5)"/><rect class="k" width="29.694" height="0.625" transform="translate(20.864 63.788) rotate(-24.13)"/><rect class="k" width="0.625" height="53.84" transform="translate(10.769 19.184) rotate(-31.46)"/><rect class="k" width="49.699" height="0.625" transform="translate(6.368 49.878) rotate(-34.394)"/><path class="a" d="M548.839,188.036H500V137.4h48.917v50.636Zm-48.292-.625h47.745V137.947H500.547v49.464Z" transform="translate(-497.578 -120.287)"/></g></g><g transform="translate(488.666 69.75)"><path class="b" d="M772.625,145.741H619.7V89.4H772.625Zm-148.237-4.689H767.937V94.089H624.389Z" transform="translate(-619.7 -89.4)"/><rect class="l" width="10.94" height="39.54" transform="translate(137.297 12.112)"/><rect class="l" width="8.596" height="31.023" transform="translate(18.305 50.229) rotate(170.457)"/><rect class="c" width="4.298" height="42.119" transform="translate(22.732 50.971) rotate(170.457)"/><rect class="b" width="2.813" height="42.119" transform="translate(37.852 51.174) rotate(170.457)"/><rect class="l" width="4.298" height="42.119" transform="translate(34.906 50.966) rotate(170.457)"/><rect class="l" width="4.298" height="42.119" transform="translate(42.191 50.971) rotate(170.457)"/><rect class="e" width="7.814" height="36.727" transform="translate(30.652 50.347) rotate(170.457)"/><rect class="l" width="5.47" height="35.555" transform="translate(127.373 16.176)"/><rect class="l" width="3.751" height="47.667" transform="translate(104.779 38.834) rotate(90)"/><rect class="b" width="1.875" height="52.434" transform="translate(109.575 36.955) rotate(90)"/><rect class="c" width="5.47" height="39.54" transform="translate(112.838 12.112)"/><rect class="c" width="7.736" height="33.992" transform="translate(103.346 29.154) rotate(90)"/><rect class="b" width="9.065" height="38.603" transform="translate(118.308 13.05)"/><rect class="e" width="9.065" height="46.495" transform="translate(107.162 42.607) rotate(90)"/><rect class="e" width="4.454" height="42.588" transform="translate(132.843 9.065)"/><g transform="translate(65.015 42.588)"><rect class="b" width="0.625" height="9.065"/><rect class="b" width="0.625" height="9.065" transform="translate(3.048)"/><g transform="translate(34.148)"><rect class="b" width="0.625" height="9.065"/><rect class="b" width="0.625" height="9.065" transform="translate(3.126)"/></g></g><rect class="a" width="10.94" height="0.625" transform="translate(137.297 16.41)"/><rect class="a" width="10.94" height="0.625" transform="translate(137.297 47.354)"/><rect class="a" width="10.94" height="0.625" transform="translate(137.297 18.285)"/><rect class="a" width="10.94" height="0.625" transform="translate(137.297 45.479)"/><rect class="a" width="8.596" height="0.547" transform="translate(5.32 24.884) rotate(-9.596)"/><rect class="a" width="8.596" height="0.547" transform="translate(9.155 47.54) rotate(-9.596)"/></g><g transform="translate(24.029 91.787)"><g transform="translate(13.909 56.575)"><path class="c" d="M79.107,375.138H76.06L75.2,193.3h4.767Z" transform="translate(-49.96 -190.721)"/><path class="e" d="M82.206,190H58.841L42.9,374.417h3.126L63.139,197.892H77.83L94.943,374.417h3.2Z" transform="translate(-42.9 -190)"/><path class="b" d="M79.382,194.541a1.641,1.641,0,1,1-1.641-1.641A1.7,1.7,0,0,1,79.382,194.541Z" transform="translate(-50.157 -190.634)"/></g><rect class="b" width="7.502" height="40.634" transform="translate(37.743 15.941)"/><path class="m" d="M31.43,117.6,25.1,157.375h82.988l-6.33-39.775Z" transform="translate(-25.1 -117.6)"/><rect class="a" width="71.501" height="0.625" transform="translate(5.783 3.438)"/><rect class="b" width="0.625" height="58.607" transform="translate(66.187 39.775)"/><path class="e" d="M109.9,248.589h0a.7.7,0,0,1-.7-.7V242.1a.7.7,0,0,1,.7-.7h0a.7.7,0,0,1,.7.7v5.783C110.685,248.277,110.294,248.589,109.9,248.589Z" transform="translate(-43.482 -144.659)"/></g><g transform="translate(98.812 33.258)"><g transform="translate(50.011 215.83)"><path class="b" d="M337.22,337.033h-3.048A1.2,1.2,0,0,1,333,335.861v-7.189a1.2,1.2,0,0,1,1.172-1.172h3.048a1.2,1.2,0,0,1,1.172,1.172v7.189A1.2,1.2,0,0,1,337.22,337.033Z" transform="translate(-217.192 -320.78)"/><path class="b" d="M301.311,384.931H186.363a1.567,1.567,0,0,1-1.563-1.563v-62.9a1.567,1.567,0,0,1,1.563-1.563H301.311a1.567,1.567,0,0,1,1.563,1.563v62.9A1.567,1.567,0,0,1,301.311,384.931Z" transform="translate(-184.8 -318.9)"/><rect class="a" width="118.074" height="0.625" transform="translate(0 2.501)"/><g transform="translate(9.924 6.72)"><path class="k" d="M199.219,382.2a1.734,1.734,0,0,1-1.719-1.719V329.219a1.719,1.719,0,1,1,3.438,0v51.262A1.734,1.734,0,0,1,199.219,382.2Zm0-54.075a1.068,1.068,0,0,0-1.094,1.094v51.262a1.094,1.094,0,0,0,2.188,0V329.219A1.068,1.068,0,0,0,199.219,328.125Z" transform="translate(-197.5 -327.5)"/><path class="k" d="M211.319,382.2a1.734,1.734,0,0,1-1.719-1.719V329.219a1.719,1.719,0,1,1,3.438,0v51.262A1.734,1.734,0,0,1,211.319,382.2Zm0-54.075a1.068,1.068,0,0,0-1.094,1.094v51.262a1.094,1.094,0,0,0,2.188,0V329.219A1.068,1.068,0,0,0,211.319,328.125Z" transform="translate(-200.145 -327.5)"/><path class="k" d="M223.519,382.2a1.734,1.734,0,0,1-1.719-1.719V329.219a1.719,1.719,0,1,1,3.438,0v51.262A1.788,1.788,0,0,1,223.519,382.2Zm0-54.075a1.068,1.068,0,0,0-1.094,1.094v51.262a1.094,1.094,0,0,0,2.188,0V329.219A1.118,1.118,0,0,0,223.519,328.125Z" transform="translate(-202.811 -327.5)"/><path class="k" d="M235.619,382.2a1.734,1.734,0,0,1-1.719-1.719V329.219a1.719,1.719,0,1,1,3.438,0v51.262A1.734,1.734,0,0,1,235.619,382.2Zm0-54.075a1.068,1.068,0,0,0-1.094,1.094v51.262a1.094,1.094,0,0,0,2.188,0V329.219A1.068,1.068,0,0,0,235.619,328.125Z" transform="translate(-205.456 -327.5)"/><path class="k" d="M247.719,382.2A1.734,1.734,0,0,1,246,380.481V329.219a1.719,1.719,0,1,1,3.438,0v51.262A1.734,1.734,0,0,1,247.719,382.2Zm0-54.075a1.068,1.068,0,0,0-1.094,1.094v51.262a1.094,1.094,0,0,0,2.188,0V329.219A1.025,1.025,0,0,0,247.719,328.125Z" transform="translate(-208.101 -327.5)"/><path class="k" d="M259.919,382.2a1.734,1.734,0,0,1-1.719-1.719V329.219a1.719,1.719,0,1,1,3.438,0v51.262A1.788,1.788,0,0,1,259.919,382.2Zm0-54.075a1.068,1.068,0,0,0-1.094,1.094v51.262a1.094,1.094,0,0,0,2.188,0V329.219A1.068,1.068,0,0,0,259.919,328.125Z" transform="translate(-210.767 -327.5)"/><path class="k" d="M272.019,382.2a1.734,1.734,0,0,1-1.719-1.719V329.219a1.719,1.719,0,1,1,3.438,0v51.262A1.734,1.734,0,0,1,272.019,382.2Zm0-54.075a1.068,1.068,0,0,0-1.094,1.094v51.262a1.094,1.094,0,0,0,2.188,0V329.219A1.068,1.068,0,0,0,272.019,328.125Z" transform="translate(-213.412 -327.5)"/><path class="k" d="M284.219,382.2a1.734,1.734,0,0,1-1.719-1.719V329.219a1.719,1.719,0,1,1,3.438,0v51.262A1.788,1.788,0,0,1,284.219,382.2Zm0-54.075a1.068,1.068,0,0,0-1.094,1.094v51.262a1.094,1.094,0,0,0,2.188,0V329.219A1.118,1.118,0,0,0,284.219,328.125Z" transform="translate(-216.079 -327.5)"/><path class="k" d="M296.319,382.2a1.734,1.734,0,0,1-1.719-1.719V329.219a1.719,1.719,0,1,1,3.438,0v51.262A1.734,1.734,0,0,1,296.319,382.2Zm0-54.075a1.068,1.068,0,0,0-1.094,1.094v51.262a1.094,1.094,0,0,0,2.188,0V329.219A1.068,1.068,0,0,0,296.319,328.125Z" transform="translate(-218.723 -327.5)"/><path class="k" d="M308.419,382.2a1.734,1.734,0,0,1-1.719-1.719V329.219a1.719,1.719,0,1,1,3.438,0v51.262A1.734,1.734,0,0,1,308.419,382.2Zm0-54.075a1.068,1.068,0,0,0-1.094,1.094v51.262a1.094,1.094,0,0,0,2.188,0V329.219A1.025,1.025,0,0,0,308.419,328.125Z" transform="translate(-221.368 -327.5)"/><path class="k" d="M320.619,382.2a1.734,1.734,0,0,1-1.719-1.719V329.219a1.719,1.719,0,1,1,3.438,0v51.262A1.788,1.788,0,0,1,320.619,382.2Zm0-54.075a1.068,1.068,0,0,0-1.094,1.094v51.262a1.094,1.094,0,0,0,2.188,0V329.219A1.068,1.068,0,0,0,320.619,328.125Z" transform="translate(-224.035 -327.5)"/></g><rect class="k" width="0.625" height="9.533" transform="translate(117.839 6.642)"/></g><rect class="b" width="168.866" height="179.103" transform="translate(24.381 15.941)"/><g transform="translate(35.711 40.087)"><path class="n" d="M260.975,115.8a4.786,4.786,0,0,0-4.376-2.735,4.868,4.868,0,0,0-2.969,1.016,7.757,7.757,0,0,0-7.658-6.8,7.648,7.648,0,0,0-7.033,4.61,6.312,6.312,0,0,0-4.532-1.875,7.323,7.323,0,0,0-2.657.547,10.34,10.34,0,0,0-10.237-8.6,12.093,12.093,0,0,0-3.36.547,14.366,14.366,0,0,0-26.1-.313,11.651,11.651,0,0,0-6.33-1.954,11.254,11.254,0,0,0-11.174,10,6.094,6.094,0,0,0-1.719-.234,6.315,6.315,0,0,0-6.33,5.783Z" transform="translate(-166.5 -94)"/><path class="b" d="M204.761,111.267a15.277,15.277,0,0,0-5.861-6.72l.313-.547a15.9,15.9,0,0,1,6.1,6.955Z" transform="translate(-173.582 -96.186)"/><path class="b" d="M227.691,107.235l-.391-.469a15.076,15.076,0,0,1,3.985-2.266l.234.547A15.184,15.184,0,0,0,227.691,107.235Z" transform="translate(-179.789 -96.295)"/><path class="b" d="M247.369,117.01l-.469-.391a8.857,8.857,0,0,1,2.266-1.719l.234.547A8.28,8.28,0,0,0,247.369,117.01Z" transform="translate(-184.073 -98.568)"/><g transform="translate(57.044 36.258)"><path class="n" d="M339.992,140.4a26.008,26.008,0,0,0-23.521,15.316,19.055,19.055,0,0,0-6.017-1.016,18.793,18.793,0,0,0-18.442,15.472,12.113,12.113,0,0,0-4.767-1.016,11.656,11.656,0,0,0-8.127,3.36,13.86,13.86,0,0,0-26.412,3.985,8.635,8.635,0,0,0-13.206,3.126H339.992Z" transform="translate(-239.5 -140.4)"/><path class="b" d="M344.777,164.054a25.223,25.223,0,0,0-6.877-3.907l.234-.547a24.461,24.461,0,0,1,7.033,3.985Z" transform="translate(-261.008 -144.597)"/><path class="b" d="M310.351,181.638a13.545,13.545,0,0,0-3.751-2.891l.234-.547a15.711,15.711,0,0,1,3.985,3.048Z" transform="translate(-254.166 -148.662)"/></g></g><g transform="translate(24.302 84.316)"><path class="n" d="M205.506,261.406a42.622,42.622,0,0,0-6.642-11.956c-4.376-6.017-3.516-11.8-2.422-14.535a34.064,34.064,0,0,0,2.344-12.659,34.568,34.568,0,0,0-7.971-22.193,14.846,14.846,0,0,1-1.8-12.894,27.505,27.505,0,0,0,1.719-9.533A27.046,27.046,0,0,0,163.7,150.6a26.2,26.2,0,0,0-11.8,2.735v108.15h53.606Z" transform="translate(-151.9 -150.6)"/><rect class="o" width="0.781" height="99.319" transform="translate(8.127 11.487)"/><rect class="o" width="19.692" height="0.781" transform="matrix(0.743, -0.67, 0.67, 0.743, 8.282, 40.055)"/><rect class="o" width="30.788" height="0.781" transform="translate(8.329 107.29) rotate(-42.074)"/></g><path class="a" d="M325.01,246.672H144.5V55.3H325.01Zm-179.885-.625H324.463V55.847H145.125Z" transform="translate(-125.98 -45.454)"/><g transform="translate(54.778 13.597)"><rect class="k" width="0.625" height="184.495"/><rect class="k" width="0.625" height="184.495" transform="translate(107.29)"/></g><path class="a" d="M394.757,48.014a2.657,2.657,0,1,1,2.657-2.657A2.635,2.635,0,0,1,394.757,48.014Zm0-4.689a2.11,2.11,0,1,0,2.11,2.11A2.1,2.1,0,0,0,394.757,43.325Z" transform="translate(-180.099 -42.7)"/><path class="a" d="M123.457,48.014a2.657,2.657,0,1,1,2.657-2.657A2.685,2.685,0,0,1,123.457,48.014Zm0-4.689a2.11,2.11,0,1,0,2.11,2.11A2.207,2.207,0,0,0,123.457,43.325Z" transform="translate(-120.8 -42.7)"/><rect class="a" width="207.313" height="0.625" transform="translate(5.001 2.422)"/><g transform="translate(13.362 2.657)"><g transform="translate(2.11)"><rect class="a" width="0.625" height="3.126"/><rect class="a" width="0.625" height="3.126" transform="translate(36.102)"/><rect class="a" width="0.625" height="3.126" transform="translate(54.153)"/><rect class="a" width="0.625" height="3.126" transform="translate(72.126)"/><rect class="a" width="0.625" height="3.126" transform="translate(169.335)"/><rect class="a" width="0.625" height="3.126" transform="translate(187.386)"/><rect class="a" width="0.625" height="3.126" transform="translate(18.051)"/></g><rect class="p" width="23.13" height="255.839" transform="translate(168.866 3.126)"/><rect class="p" width="76.971" height="255.839" transform="translate(0 3.126)"/></g><g transform="translate(110.181 122.45)"><path class="q" d="M276.335,256.629a21.472,21.472,0,0,0-14.535-8.908s14.925-6.486,22.427,8.908Z" transform="translate(-261.8 -209.665)"/><path class="q" d="M302.7,253.161s5.079-16.644,22.74-22.661c0,0-10.471,8.986-12.425,22.661Z" transform="translate(-270.74 -206.198)"/><path class="q" d="M285.323,246.364s-7.189-17.348,1.563-46.964c0,0,12.659,21.1,15.863,46.964Z" transform="translate(-266.334 -199.4)"/><path class="q" d="M281.048,254.254c.469-6.173-2.032-12.425-5.548-18.754,7.424,5,13.05,11.018,16.254,18.754Z" transform="translate(-264.794 -207.291)"/><path class="q" d="M299.2,249.424c-.078-10.549,6.564-27.506,12.425-36.024l-1.875,36.024Z" transform="translate(-269.974 -202.46)"/><path class="a" d="M288.233,256.258a17.494,17.494,0,0,0-7.033-7.111l.234-.547a17.152,17.152,0,0,1,7.267,7.345Z" transform="translate(-266.04 -210.154)"/><path class="a" d="M299.292,253.523c-.391-7.658,3.126-16.644,3.2-16.723l.547.234c0,.078-3.516,8.986-3.126,16.488Z" transform="translate(-269.988 -207.575)"/><path class="a" d="M292.971,254.453c-2.188-7.658-10.393-13.284-10.471-13.284l.313-.469c.078.078,8.439,5.783,10.706,13.6Z" transform="translate(-266.324 -208.427)"/><rect class="a" width="12.737" height="0.547" transform="matrix(0.052, -0.999, 0.999, 0.052, 39.551, 45.95)"/><g transform="translate(12.659 45.948)"><path class="l" d="M279.6,259.2v19.145a6.771,6.771,0,0,0,6.72,6.72H301.4a6.771,6.771,0,0,0,6.72-6.72V259.2Z" transform="translate(-278.35 -258.419)"/><rect class="l" width="31.101" height="7.111"/><rect class="a" width="28.444" height="0.625" transform="translate(1.25 6.798)"/></g></g></g><g transform="translate(441.155 262.995)"><g transform="translate(0 20.241)"><rect class="e" width="74.861" height="28.6"/><rect class="b" width="64.624" height="18.676" transform="translate(5.157 5.001)"/><path class="l" d="M610.412,375.569H599.628a1.369,1.369,0,0,1-1.328-1.328v-.313a1.369,1.369,0,0,1,1.328-1.328h10.784a1.369,1.369,0,0,1,1.328,1.328v.313A1.317,1.317,0,0,1,610.412,375.569Z" transform="translate(-567.512 -364.786)"/><g transform="translate(7.736 27.741)"><path class="a" d="M642.5,420.136h-4.689L633.9,398.1h6.486Zm-4.22-.547h3.595l-2.032-20.864H634.6Z" transform="translate(-583.029 -398.1)"/><path class="a" d="M573.489,420.136H568.8l2.11-22.036H577.4Zm-4.063-.547h3.594l3.673-20.864h-5.236Z" transform="translate(-568.8 -398.1)"/></g></g><g transform="translate(6.149)"><g transform="translate(0 11.199)"><path class="b" d="M571.8,351.1v2.188a6.718,6.718,0,0,0,3.751,5.939v.86h5.47v-.86a6.541,6.541,0,0,0,3.751-5.939V351.1Z" transform="translate(-567.869 -351.045)"/><path class="b" d="M572.888,358.117c-2.344-.86-5.861-2.813-6.1-4.845a1.94,1.94,0,0,1,1.407-2.11,3.557,3.557,0,0,1,2.969.625l-.313.469a3.149,3.149,0,0,0-2.422-.547,1.406,1.406,0,0,0-1.016,1.485c.156,1.485,3.048,3.36,5.7,4.376Z" transform="translate(-566.769 -351.029)"/></g><g transform="translate(25.108)"><circle class="q" cx="5.392" cy="5.392" r="5.392" transform="translate(2.579 0.627)"/><path class="q" d="M639.284,342.091a5.392,5.392,0,1,1-5.392-5.392A5.3,5.3,0,0,1,639.284,342.091Z" transform="translate(-605.37 -336.698)"/><path class="q" d="M628.584,345.792a5.392,5.392,0,1,1-5.392-5.392A5.4,5.4,0,0,1,628.584,345.792Z" transform="translate(-603.031 -337.507)"/><path class="m" d="M623.828,358.8a20.184,20.184,0,0,0,11.721-13.6H598.9a20.184,20.184,0,0,0,11.721,13.6Z" transform="translate(-598.9 -338.556)"/><path class="a" d="M630.375,344.448a4.715,4.715,0,0,0-1.875-2.579l.313-.469a5.245,5.245,0,0,1,2.11,2.891Z" transform="translate(-605.37 -337.725)"/></g></g></g><g transform="translate(317.846 179.784)"><g transform="translate(9.924 126.192)"><path class="a" d="M528.728,418.737H521.7l-.078-.234L515.6,391.7h9.768Zm-6.564-.547H528.1l-3.126-25.865H516.46Z" transform="translate(-436.051 -391.7)"/><path class="a" d="M420.833,418.737H413.8l3.282-27.037h9.768Zm-6.408-.547h5.939l5.783-25.865h-8.518Z" transform="translate(-413.8 -391.7)"/></g><g transform="translate(24.459 126.192)"><path class="b" d="M511.243,418.737h-5L502.1,391.7h6.877v.234Zm-4.532-.547h3.829l-2.188-25.865H502.8Z" transform="translate(-447.635 -391.7)"/><path class="b" d="M437.4,418.737h-5l2.266-27.037h6.877Zm-4.376-.547h3.829l3.985-25.865h-5.626Z" transform="translate(-432.4 -391.7)"/></g><path class="c" d="M502.891,297.093l5.939-59.31a6.749,6.749,0,0,0-7.58-7.5c-31.257,4.61-53.45,4.61-84.082,0a6.749,6.749,0,0,0-7.58,7.5l5.939,59.232a7.4,7.4,0,0,1-.156,2.266c-.7,3.2-2.813,12.5-3.048,13.05-.156.391,1.25,4.61,2.422,8.127a6.635,6.635,0,0,0,6.564,4.532l37.665-1.25h.469l37.665,1.25a6.8,6.8,0,0,0,6.564-4.532c1.172-3.516,2.579-7.736,2.422-8.127-.234-.625-2.266-9.846-3.048-13.05A6.743,6.743,0,0,1,502.891,297.093Z" transform="translate(-402.947 -230.211)"/><path class="d" d="M412.4,310.1l7.58,5.939c1.8,1.485,1.954,2.266,2.188,4.767l2.5,19.3H413.181Z" transform="translate(-403.57 -247.672)"/><path class="d" d="M530.368,310.1l-7.58,5.939c-1.8,1.485-1.954,2.266-2.188,4.767l-2.5,19.3,11.487.86Z" transform="translate(-426.673 -247.672)"/><path class="e" d="M510.969,309.4h-4.61a2.753,2.753,0,0,0-2.657,2.188l-3.595,28.444c-.234,1.25-2.5-1.25-3.751-1.25H418.37c-1.25,0-3.516,3.2-3.751,1.954l-3.595-29.147a2.689,2.689,0,0,0-2.657-2.188h-4.61a2.635,2.635,0,0,0-2.657,2.657l5.157,61.264a6.1,6.1,0,0,0,6.1,6.1h91.036a6.02,6.02,0,0,0,6.017-6.017l4.3-61.342A2.753,2.753,0,0,0,510.969,309.4Z" transform="translate(-401.1 -247.519)"/><path class="f" d="M501.053,368.442h-79.94a2.8,2.8,0,0,1-2.813-2.813V348.2a2.8,2.8,0,0,1,2.813-2.813,545.919,545.919,0,0,1,79.94,0,2.8,2.8,0,0,1,2.813,2.813v17.426A2.8,2.8,0,0,1,501.053,368.442Z" transform="translate(-404.859 -255.066)"/><rect class="a" width="79.627" height="0.625" transform="translate(16.41 92.044)"/><g transform="translate(1.153 53.417)"><path class="m" d="M430.57,299.375c-8.2-2.579-25.943,1.485-27.819,5.861-1.954,4.3,12.894,33.367,20.473,34.852s28.991-3.282,29.147-7.424C452.059,322.818,438.853,301.954,430.57,299.375Z" transform="translate(-402.576 -298.57)"/><path class="a" d="M425.826,340.721l-.547-.234c1.094-2.891-2.891-13.519-8.361-22.74-4.3-7.111-8.283-11.409-11.018-11.8l.078-.547c4.142.547,9.377,8.674,11.487,12.112C422.466,325.952,427.077,337.36,425.826,340.721Z" transform="translate(-403.302 -300.063)"/></g></g><rect class="a" width="632.643" height="0.625" transform="translate(20.2 332.466)"/></g></svg>