<?xml version="1.0" encoding="utf-8"?>
<!-- Generator: Adobe Illustrator 24.1.1, SVG Export Plug-In . SVG Version: 6.00 Build 0)  -->
<svg version="1.1" id="Layer_1" xmlns="http://www.w3.org/2000/svg" xmlns:xlink="http://www.w3.org/1999/xlink" x="0px" y="0px"
	 viewBox="0 0 1312.86 718.57" style="enable-background:new 0 0 1312.86 718.57;" xml:space="preserve">
<style type="text/css">
	.st0{fill:#603913;stroke:#594A42;stroke-miterlimit:10;}
	.st1{font-family:'Roboto-Bold';}
	.st2{font-size:135.227px;}
	.st3{letter-spacing:-6;}
	.st4{font-family:'Roboto-Light';}
</style>
<path class="st0" d="M236.54,532.18c0.7-13.64,5.15-25.07,9.52-36.48c4.53-11.85,4.66-11.8-4.57-20.94
	c-9.5-9.41-9.36-9.36-14.26,2.76c-4.61,11.39-7.12,23.59-13.14,34.4c-2.3,4.14,1.14,5.61,3.09,7.54
	c24.8,24.54,49.69,48.99,74.55,73.47c19.93,19.62,39.78,39.32,59.83,58.81c3.45,3.35,4.29,5.59,0.25,9.12
	c-4.81,4.21-9.56,8.69-13.42,13.74c-4.68,6.12-7.7,4.42-12.34-0.18c-40.8-40.47-81.83-80.71-122.79-121.02
	C148.77,499.78,94.35,446.09,39.7,392.61c-4.86-4.75-5.72-7.76-0.13-12.34c4.93-4.04,9.38-8.78,13.52-13.65
	c3.34-3.93,5.36-3.46,8.86,0.01c28.92,28.76,58.05,57.33,87.15,85.91c2.13,2.09,3.85,4.79,7.29,5.86c0.3-2.92,0.59-5.65,0.88-8.42
	c11.48,2.74,13.33,6.22,8.74,16.94c-0.95,2.22,0.52,2.74,1.39,3.61c12.2,12.1,24.48,24.13,36.72,36.2c2.69,2.65,3.88,1.97,5.23-1.47
	c5.25-13.34,10.87-26.53,16.28-39.81c0.73-1.79,2.34-3.75,0.42-5.67c-8.41-8.41-16.89-16.75-26.35-26.12
	c4.66,31.23,4.43,34.75-2.78,43c-5.64-13.39-5.73-27.28-5.14-41c0.31-7.14-1.7-11.81-6.71-16.67
	c-29.28-28.4-58.14-57.23-87.42-85.63c-4.28-4.16-4.16-6.48,0.08-10.19c4.82-4.21,9.41-8.77,13.48-13.7c4-4.84,6.65-4.13,10.83,0.02
	c37.71,37.39,75.62,74.59,113.51,111.79c1.96,1.92,3.49,4.48,6.78,5.32c4.99-11.7,4.42-24.72,8.33-36.43
	c4.96-14.82-0.16-24-11.01-34.07c-28.38-26.35-55.42-54.14-83.18-81.15c-3.77-3.67-4.41-5.88-0.15-9.55
	c5.04-4.34,9.81-9.11,14.02-14.25c4.07-4.98,6.69-3.92,10.77,0.12c42.47,42.07,85.19,83.88,127.61,126
	c4.6,4.57,6.85,5.07,10.49-0.78c6.22-9.99,13.69-19.17,19.48-29.5c2.61-4.65,2.04-7.37-1.78-11.11
	c-40.38-39.44-80.46-79.17-120.88-118.56c-4.46-4.35-4.51-6.74,0.02-10.67c5.02-4.36,9.74-9.16,14.03-14.25
	c3.66-4.34,5.93-3.47,9.59,0.16c35.14,34.88,70.47,69.57,105.75,104.31c6.34,6.24,6.34,6.22,9.73-1.75c0.77-1.81,1.02-4.8,3.24-4.65
	c2.8,0.19,3.61,3.17,4.21,5.66c0.23,0.98,0.52,2.18,0.18,3.04c-4.98,12.66,4.14,19.01,11.53,26.22
	c11.55,11.26,11.52,11.3,22.09-0.52c5.65-6.31,11.02-12.89,17.01-18.85c4.38-4.35,4.35-6.96-0.3-11.49
	c-45.55-44.43-90.81-89.14-136.16-133.77c-7-6.89-7.01-6.86-0.17-13.82c4.14-4.21,8.57-8.17,12.31-12.71
	c3.58-4.35,5.83-3.6,9.55,0.08c43.56,43.16,87.29,86.13,130.98,129.16c1.1,1.08,2.31,2.06,3.27,3.25c3.24,4.02,5.3,3.67,7.26-1.27
	c6.04-15.23,12.23-30.41,18.61-45.51c3.83-9.06,6.33-18.89,13.72-26.47c3.8,5.19,1.73,9.77,0.01,14.23
	c-8.28,21.52-16.44,43.1-27.47,63.41c-1.82,3.36-2.23,5.68,0.95,8.59c7.19,6.58,14.08,13.49,20.92,20.43
	c2.42,2.45,4.34,2.9,7.15,0.59c40.68-33.39,80.96-67.21,114.93-107.72c19.82-23.63,33.06-51.12,45.01-79.29
	c4.2-9.89,7.99-20.04,14.93-28.49c1.4-1.71,3.12-4.59,5.29-3.62c2.53,1.14,1.68,4.4,1.28,6.87c-0.85,5.14-3.43,9.62-5.6,14.25
	c-34.38,73.48-85.03,133.82-148.37,183.95c-7.24,5.73-14.04,12-21.29,17.73c-3.57,2.82-4.58,4.87-0.62,8.3
	c5.61,4.85,10.13,13.11,16.34,14.52c6.42,1.46,12.52-6.58,18.8-10.37c73.35-44.32,132.07-103.64,178.43-175.35
	c21.45-33.17,38.93-68.64,57.74-103.33c3.14-5.78,6.56-11.41,10.41-16.85c0.28,8.45-2.93,15.91-6.12,23.28
	c-15.78,36.36-37.7,69.24-58.19,102.97c-46.52,76.59-110.66,134.67-186.69,180.64c-9.17,5.55-8.6,5.36-1.57,13.44
	c5.51,6.34,10.03,6.64,17.45,2.74c17.94-9.43,36.73-16.99,57.12-19.58c1.02-0.13,2.04-0.5,3.04-0.42c3.62,0.28,9.58-2.26,10.27,1.56
	c0.77,4.31-4.96,6.7-9.16,7.81c-4.67,1.23-9.58,1.64-14.41,2.23c-16.85,2.07-31.85,9.31-46.83,16.62c-5.63,2.75-1.07,4.83,0.71,6.59
	c20.05,19.86,40.06,39.76,60.43,59.29c4.51,4.33,4.28,6.83-0.13,10.7c-5.19,4.56-9.99,9.61-14.61,14.76c-2.92,3.25-4.97,3.31-8,0.13
	c-6.2-6.49-12.71-12.68-19.16-18.93c-1.73-1.68-3.12-4.2-6.39-2.13c-12.21,7.7-26.51,7.14-39.98,9.83
	c-3.71,0.74-7.44,1.36-11.11,2.02c-0.11,3.64,2.54,4.84,4.25,6.54c12.19,12.11,24.39,24.23,36.82,36.1
	c3.19,3.05,4.25,4.98,0.42,8.44c-5.89,5.32-11.33,11.16-16.79,16.94c-2.24,2.38-3.91,2.67-6.24,0.17
	c-17.25-18.51-37.89-13.12-58.32-7.86c-4.35,1.12-8.3,3.79-11.81,5.45c11.27,11.78,22.23,23.58,33.64,34.94
	c3.62,3.6,3.64,5.73-0.04,9.05c-4.94,4.46-9.69,9.21-14.02,14.26c-3.74,4.37-6.21,4.93-10.66,0.36
	c-15.4-15.8-31.34-31.06-46.99-46.61c-2.64-2.62-4.84-4.61-8.07-0.77c-1.02,1.21-2.46,3.17-4.47,1.93
	c-1.72-1.07-1.59-3.39-1.18-4.94c3.82-14.48-10.58-17.2-16.47-25.32c-2.04-2.82-3.11,1.06-3.95,2.48
	c-3.02,5.06-5.68,10.33-8.78,15.33c-1.47,2.37-3.93,5.3-6.64,4.32c-3.32-1.21-1.45-4.95-1.08-7.48c0.89-6.2,3.57-11.95,7.39-16.71
	c4.53-5.63,3.06-9.42-1.95-13.23c-2.21-1.68-3.61-4.35-6.57-5.39c-9.89,13.45-13.91,29.55-20.09,44.66
	c-1.51,3.7,1.85,4.97,3.68,6.78c26.26,25.99,52.41,52.09,79.05,77.67c5.57,5.34,5.36,8.32-0.21,12.85
	c-4.35,3.54-8.53,7.55-11.86,12.03c-4.42,5.93-7.25,4.16-11.63-0.19c-34.38-34.19-69.06-68.08-103.46-102.25
	c-4.59-4.56-6.72-5-8.73,1.82c-1.1,3.76-3.32,9.5-7.31,8.52c-3.72-0.91-2.72-6.95-2.49-10.9c0.18-3.05,0.41-6.31,1.61-9.05
	c2.97-6.77-2.35-9.37-6.05-12.41c-2.91-2.4-3.25,1.43-3.73,2.83c-2.74,7.98-5.25,16.05-7.72,24.12
	C245.93,524.63,243.48,529.16,236.54,532.18z M533.06,414.69c-13.01-13.46-25.67-26.5-38.25-39.61c-2.16-2.26-4.04-2.49-6.64-0.68
	c-11.15,7.77-22.34,15.48-33.63,23.03c-3.3,2.21-3.15,3.86-0.44,6.45c7.6,7.27,15.02,14.73,22.49,22.13
	c1.49,1.47,2.89,2.85,5.32,2.2C498.94,423.69,516,419.2,533.06,414.69z M266.52,451.49c2.06,0,2.59-1.27,3.26-2.31
	c7.64-11.79,15.2-23.62,22.94-35.35c1.67-2.54,0.91-4.14-0.94-5.95c-8.42-8.21-16.85-16.4-25.15-24.73
	c-3.52-3.54-4.86-2.31-5.77,1.92c-2.32,10.72-3.32,22.05-7.61,31.93c-5.81,13.38-2.75,22.47,8.54,30.19
	C263.62,448.46,265.13,450.22,266.52,451.49z M483.24,481.63c-10.8-11.15-21-21.79-31.34-32.29c-2.43-2.47-4.79-0.29-6.89,1.01
	c-7.23,4.49-13.92,9.72-19.41,16.21c-14.72,17.38-13.93,10.63,1.72,27.34c2.7,2.88,4.65,1.73,7.22,0.07
	c8.29-5.37,17.57-8.08,27.17-10.16C468.66,482.31,475.82,482.78,483.24,481.63z M442.55,440.45c-0.65-0.76-1.41-1.78-2.29-2.66
	c-4.36-4.32-8.91-8.46-13.07-12.97c-2.76-2.99-4.78-2.68-7.6-0.1c-7.54,6.91-15.41,13.45-22.96,20.35c-9.74,8.91-9.66,9-0.02,18.47
	c2.37,2.33,4.97,4.48,7.07,7.03c3.02,3.68,5.16,3.61,8.3-0.18c8.16-9.87,17.18-18.92,27.69-26.39
	C440.82,443.2,442.55,442.75,442.55,440.45z M443.05,324.72c-0.71-0.82-1.61-2.01-2.66-3.06c-4.34-4.35-8.86-8.52-13.04-13.02
	c-2.74-2.96-4.41-2.89-7.04,0.34c-5.48,6.75-11.3,13.24-17.26,19.57c-13.16,13.97-13.16,13.82,1.21,26.36
	c2.69,2.35,4.27,2.54,6.96,0.05c9.59-8.85,19.43-17.44,29.15-26.15C441.46,327.83,442.98,327.1,443.05,324.72z M383.11,381.17
	c-4.16-3.99-8.36-7.73-12.19-11.81c-2.88-3.08-4.82-2.57-7.29,0.47c-5.81,7.12-11.94,13.97-17.78,21.07
	c-11.34,13.79-11.23,13.75,2.4,25.28c2.61,2.21,3.96,2.15,6.03-0.52c8.28-10.7,16.7-21.3,26.23-30.94
	C381.37,383.82,381.99,382.7,383.11,381.17z M303.02,486.84c1.99-0.74,2.49-2.58,3.44-4.01c5.51-8.3,10.88-16.69,16.52-24.9
	c8.77-12.75,8.77-12.6-3.32-22.69c-2.62-2.19-4.02-2.08-6.15,0.43c-7.29,8.58-14.35,17.31-19.94,27.14
	c-5.69,10.02-5.75,10.05,2.61,18.18C298.34,483.09,300.05,485.77,303.02,486.84z M466.93,347.44c-4.82-4.64-9.45-8.68-13.57-13.19
	c-3.05-3.34-5.15-2.72-8.15,0.03c-7.94,7.27-16.18,14.22-24.24,21.36c-8.51,7.53-8.46,7.54-0.02,15.56
	c2.44,2.32,4.28,4.73,8.33,1.86C441.17,364.61,453.38,356.6,466.93,347.44z M445.29,393.9c1.71-1.19,3.17-2.22,4.64-3.23
	c8.44-5.79,16.82-11.68,25.35-17.34c10.81-7.17,10.67-6.89,1.3-16.33c-3.69-3.72-6.29-3.65-10.31-0.75
	c-9.34,6.73-19.1,12.87-28.46,19.58c-2.16,1.54-7.34,2.74-5.14,6.15C435.73,386.72,439.98,391.02,445.29,393.9z M379.99,448.74
	c3.36-1.14,4.24-2.96,5.5-4.11c7.56-6.9,14.96-13.96,22.61-20.75c9.62-8.53,9.47-8.21,0.36-17.59c-3.85-3.96-6.28-3.57-9.87-0.05
	c-8.03,7.88-16.43,15.38-24.49,23.24c-1.99,1.94-6.27,3.81-4.39,7.02C372.38,441.02,376.5,444.7,379.99,448.74z M362.79,362.11
	c-1.02-1.23-1.88-2.43-2.91-3.48c-2.51-2.56-5.28-4.9-7.61-7.62c-3.06-3.58-4.91-3.96-7.73,0.64c-5.9,9.59-12.4,18.83-18.88,28.05
	c-5.95,8.48-5.84,8.15,1.55,15.73c3.57,3.66,5.31,2.98,8.2-0.57c7.93-9.74,16.23-19.19,24.36-28.77
	C360.74,364.95,361.6,363.69,362.79,362.11z M282.05,466.22c8.63-12.3,17.53-24.42,25.76-36.98c4.36-6.66-3.52-8.35-6.44-11.47
	c-3.49-3.73-4.57,1.43-5.69,3.22c-5.96,9.51-11.7,19.17-17.27,28.92C272.99,459.39,273.12,459.46,282.05,466.22z M396.83,393.62
	c-1.62-1.26-4.49-3.36-7.2-5.65c-2.13-1.79-3.29-0.08-4.48,1.08c-9.93,9.69-18.54,20.49-26.79,31.62c-2.14,2.89-0.81,4.48,1.2,6.44
	c2.63,2.57,4.03,0.46,5.58-1.2c8.91-9.59,18.64-18.29,28.76-26.57C395.03,398.41,396.56,397.69,396.83,393.62z M316.23,499.6
	c7.28-13.46,14.55-26.86,21.77-40.29c0.88-1.64,3.1-3.71,0.24-5.12c-2.64-1.3-3.17,1.77-4.12,3.22
	c-6.99,10.66-13.55,21.61-20.87,32.04C309.7,494.5,310.91,497.08,316.23,499.6z"/>
<text transform="matrix(1 0 0 1 690 276.6288)"><tspan x="0" y="0" class="st1 st2 st3">ELITE </tspan><tspan x="0" y="162.27" class="st4 st2 st3">CREATIVE </tspan><tspan x="0" y="324.54" class="st1 st2 st3">DESIGNS</tspan></text>
</svg>
