<svg xmlns="http://www.w3.org/2000/svg" width="248.423" height="85.488" viewBox="0 0 248.423 85.488"><defs><style>.a{fill:#2d3551;}.b,.g{fill:#fff;}.c{fill:#d79929;}.d{fill:#667faa;}.e{fill:#ccb992;}.f,.h{fill:none;}.g{font-size:25px;font-family:SegoeUI, Segoe UI;}.h{stroke:#fff;stroke-miterlimit:10;stroke-width:2px;}</style></defs><g transform="translate(-90.9 -36.611)"><g transform="translate(90.9 36.611)"><g transform="translate(5.493 70.404)"><path class="a" d="M212.724,213.184H208.8l-.044-.131L205.4,198.1h5.45Zm-3.662-.305h3.313l-1.744-14.43H205.88Z" transform="translate(-160.975 -198.1)"/><path class="a" d="M107.424,213.184H103.5l1.831-15.084h5.45Zm-3.531-.305h3.313l3.226-14.431H105.68Z" transform="translate(-103.5 -198.1)"/></g><g transform="translate(13.602 70.404)"><path class="b" d="M197,213.184h-2.79L191.9,198.1h3.837v.131Zm-2.529-.305h2.136l-1.221-14.431h-3.139Z" transform="translate(-161.47 -198.1)"/><path class="b" d="M124.89,213.184H122.1l1.264-15.084H127.2Zm-2.4-.305h2.136l2.223-14.431h-3.139Z" transform="translate(-122.1 -198.1)"/></g><path class="c" d="M151.426,73.925l3.313-33.09a3.766,3.766,0,0,0-4.229-4.185c-17.439,2.572-29.82,2.572-46.91,0a3.766,3.766,0,0,0-4.229,4.185l3.313,33.046a4.128,4.128,0,0,1-.087,1.264c-.392,1.787-1.569,6.975-1.7,7.281a32.091,32.091,0,0,0,1.351,4.534,3.7,3.7,0,0,0,3.662,2.529l21.014-.7h.262l21.014.7a3.8,3.8,0,0,0,3.662-2.529,32.1,32.1,0,0,0,1.352-4.534c-.131-.349-1.264-5.493-1.7-7.281A3.761,3.761,0,0,1,151.426,73.925Z" transform="translate(-95.666 -36.611)"/><path class="d" d="M102.2,116.4l2.747,3.313a3.736,3.736,0,0,1,.785,2.659l.916,10.768h-4.142Z" transform="translate(-97.274 -81.615)"/><path class="e" d="M214.745,116.4l-4.229,3.313c-1,.828-1.09,1.264-1.221,2.659l-1.4,10.768,6.409.48Z" transform="translate(-156.892 -81.615)"/><path d="M152.2,115.8h-2.572a1.536,1.536,0,0,0-1.482,1.221l-2.005,15.869c-.131.7-1.4-.7-2.093-.7H100.535c-.7,0-1.962,1.787-2.093,1.09l-2.005-16.262a1.5,1.5,0,0,0-1.482-1.221H92.382a1.47,1.47,0,0,0-1.482,1.482l2.877,34.18a3.4,3.4,0,0,0,3.4,3.4h50.79a3.358,3.358,0,0,0,3.357-3.357l2.4-34.223A1.566,1.566,0,0,0,152.2,115.8Z" transform="translate(-90.9 -81.276)"/><path class="e" d="M154.269,164h-44.6a1.563,1.563,0,0,1-1.569-1.569v-9.722a1.563,1.563,0,0,1,1.569-1.569,304.579,304.579,0,0,1,44.6,0,1.563,1.563,0,0,1,1.569,1.569v9.722A1.563,1.563,0,0,1,154.269,164Z" transform="translate(-100.601 -100.75)"/><rect class="a" width="44.425" height="0.349" transform="translate(9.155 51.352)"/></g><rect class="f" width="133.711" height="57.373" transform="translate(166.322 54.786)"/><text class="g" transform="translate(166.323 69.99)"><tspan x="0" y="0">The Elite </tspan><tspan x="0" y="25">Creative Design</tspan></text><line class="h" x2="87.193" transform="translate(170.071 107.058)"/></g></svg>