<svg xmlns="http://www.w3.org/2000/svg" id="Capa_1" style="enable-background:new 0 0 24.75 24.75;" viewBox="0 0 24.75 24.75" x="0px" y="0px" width="24.75px" height="24.75px" xmlns:xml="http://www.w3.org/XML/1998/namespace" xml:space="preserve" xmlns:xlink="http://www.w3.org/1999/xlink" version="1.1">
<g>
	<path d="M 0 3.875 c 0 -1.104 0.896 -2 2 -2 h 20.75 c 1.104 0 2 0.896 2 2 s -0.896 2 -2 2 H 2 C 0.896 5.875 0 4.979 0 3.875 Z M 22.75 10.375 H 2 c -1.104 0 -2 0.896 -2 2 c 0 1.104 0.896 2 2 2 h 20.75 c 1.104 0 2 -0.896 2 -2 C 24.75 11.271 23.855 10.375 22.75 10.375 Z M 22.75 18.875 H 2 c -1.104 0 -2 0.896 -2 2 s 0.896 2 2 2 h 20.75 c 1.104 0 2 -0.896 2 -2 S 23.855 18.875 22.75 18.875 Z"/>
</g>
<g>
</g>
<g>
</g>
<g>
</g>
<g>
</g>
<g>
</g>
<g>
</g>
<g>
</g>
<g>
</g>
<g>
</g>
<g>
</g>
<g>
</g>
<g>
</g>
<g>
</g>
<g>
</g>
<g>
</g>
</svg>