<svg xmlns="http://www.w3.org/2000/svg" width="14" height="14" viewBox="0 0 14 14"><defs><style>.a{fill:#c8933b;}</style></defs><g transform="translate(-1.326 -1.334)"><path class="a" d="M7,4.546A4.334,4.334,0,0,0,4.536,1.378a.464.464,0,0,0-.278-.037c-2.524.419-2.9,1.889-2.919,1.95a.473.473,0,0,0,.01.258C4.36,12.9,10.617,14.629,12.674,15.2c.158.044.289.079.388.112a.454.454,0,0,0,.147.023.472.472,0,0,0,.2-.043,3.867,3.867,0,0,0,1.913-3.015.476.476,0,0,0-.046-.292,4.526,4.526,0,0,0-2.966-2.067.466.466,0,0,0-.422.1,6.374,6.374,0,0,1-2.025,1.265A9,9,0,0,1,5.568,6.916a5.119,5.119,0,0,1,1.306-2A.477.477,0,0,0,7,4.546Z"/></g></svg>