<svg xmlns="http://www.w3.org/2000/svg" width="67.732" height="67.736" viewBox="0 0 67.732 67.736"><defs><style>.a{fill:#e99f1e;}</style></defs><g transform="translate(0)"><path class="a" d="M120.85,145.669a24.835,24.835,0,1,0-24.835-24.835A24.835,24.835,0,0,0,120.85,145.669Zm-19.19-25.963H98.33a22.567,22.567,0,0,1,21.391-21.39v3.329a1.129,1.129,0,1,0,2.258,0V98.315a22.567,22.567,0,0,1,21.391,21.39h-4.458a1.129,1.129,0,1,0,0,2.258h4.458a22.567,22.567,0,0,1-21.391,21.391v-3.329a1.129,1.129,0,0,0-2.258,0v3.329A22.567,22.567,0,0,1,98.33,121.963h3.329a1.129,1.129,0,1,0,0-2.258Z" transform="translate(-82.469 -82.454)"/><path class="a" d="M98.167,23.725q-.5-.875-1.069-1.713l2.787-2.787a1.129,1.129,0,0,0,0-1.6l-6.378-6.378a1.129,1.129,0,0,0-1.6,0l-2.792,2.783A29.175,29.175,0,0,0,73.88,9.059v-6.8h7.9a1.129,1.129,0,0,0,0-2.258H63.72a1.129,1.129,0,1,0,0,2.258h7.9V9.069a29.316,29.316,0,0,0-24.27,14.637H41.143a1.129,1.129,0,0,0,0,2.258h6.773c.029,0,.054-.015.084-.017a1.118,1.118,0,0,0,.985-.564,27.092,27.092,0,1,1,0,26.009,1.118,1.118,0,0,0-.983-.57c-.029,0-.055-.017-.086-.017H41.143a1.129,1.129,0,1,0,0,2.258h6.209A29.338,29.338,0,0,0,98.167,23.725Zm-7.2-8.335,1.745-1.745,4.782,4.782-1.747,1.747A29.659,29.659,0,0,0,90.964,15.39Z" transform="translate(-34.37)"/><path class="a" d="M11.3,265.129A1.129,1.129,0,0,0,10.175,264H1.144a1.129,1.129,0,1,0,0,2.258h9.031A1.129,1.129,0,0,0,11.3,265.129Z" transform="translate(-0.015 -226.748)"/><path class="a" d="M17.144,218.258h7.9a1.129,1.129,0,1,0,0-2.258h-7.9a1.129,1.129,0,1,0,0,2.258Z" transform="translate(-13.757 -185.521)"/><path class="a" d="M26.175,313.129A1.129,1.129,0,0,0,25.046,312h-7.9a1.129,1.129,0,0,0,0,2.258h7.9A1.129,1.129,0,0,0,26.175,313.129Z" transform="translate(-13.757 -267.975)"/><path class="a" d="M202.689,218.5a1.129,1.129,0,0,0,1.6,0l15.691-15.691a1.129,1.129,0,0,0-1.6-1.6l-14.893,14.893-6.717-6.717a1.129,1.129,0,0,0-1.6,1.6Z" transform="translate(-167.364 -172.551)"/></g></svg>